<?xml version="1.0" standalone="no"?><!DOCTYPE svg PUBLIC "-//W3C//DTD SVG 1.1//EN" "http://www.w3.org/Graphics/SVG/1.1/DTD/svg11.dtd"><svg t="1520607386941" class="icon" style="" viewBox="0 0 1025 1024" version="1.1" xmlns="http://www.w3.org/2000/svg" p-id="5608" xmlns:xlink="http://www.w3.org/1999/xlink" width="64.0625" height="64"><defs><style type="text/css"></style></defs><path d="M779.549426 898.922169c-6.717712 0-13.292079-2.755275-18.036764-7.878798L637.24882 756.83965 126.735502 756.83965c-34.71688 0-62.960756-28.243877-62.960756-62.960756L63.774745 188.163502c0-35.893324 29.282096-62.960756 68.112947-62.960756l768.041979 0c30.795399 0 57.808565 29.421345 57.808565 62.960756l0 505.715392c0 34.71688-28.243877 62.960756-62.960756 62.960756l-90.661974 0 0 117.509271c0 10.110868-6.193482 19.189659-15.607084 22.879741C785.596493 898.368247 782.557602 898.922169 779.549426 898.922169zM131.887693 174.349241c-11.521782 0-18.966452 5.422497-18.966452 13.814261l0 505.715392c0 7.616683 6.197578 13.814261 13.814261 13.814261l521.24978 0c6.845697 0 13.380133 2.855616 18.030621 7.877774l88.953109 96.069112 0-79.373638c0-13.5716 11.001648-24.573248 24.573248-24.573248l115.235222 0c7.616683 0 13.814261-6.197578 13.814261-13.814261L908.591742 188.163502c0-8.041595-6.530341-13.425184-8.777769-13.814261L131.887693 174.349241z" p-id="5609" fill="#ffffff"></path><path d="M511.055978 407.367111c-22.862335 0-41.377254 18.553826-41.377254 41.377254s18.514918 41.377254 41.377254 41.377254 41.377254-18.514918 41.377254-41.377254C552.433231 425.920937 533.918313 407.367111 511.055978 407.367111z" p-id="5610" fill="#ffffff"></path><path d="M676.601853 407.367111c-22.862335 0-41.377254 18.553826-41.377254 41.377254s18.514918 41.377254 41.377254 41.377254 41.377254-18.514918 41.377254-41.377254C717.979106 425.920937 699.464188 407.367111 676.601853 407.367111z" p-id="5611" fill="#ffffff"></path><path d="M346.319996 407.367111c-22.862335 0-41.377254 18.553826-41.377254 41.377254s18.514918 41.377254 41.377254 41.377254c22.862335 0 41.377254-18.514918 41.377254-41.377254C387.696226 425.920937 369.182332 407.367111 346.319996 407.367111z" p-id="5612" fill="#ffffff"></path></svg>