<?xml version="1.0" standalone="no"?><!DOCTYPE svg PUBLIC "-//W3C//DTD SVG 1.1//EN" "http://www.w3.org/Graphics/SVG/1.1/DTD/svg11.dtd"><svg t="1515935658236" class="icon" style="" viewBox="0 0 1024 1024" version="1.1" xmlns="http://www.w3.org/2000/svg" p-id="11594" xmlns:xlink="http://www.w3.org/1999/xlink" width="128" height="128"><defs><style type="text/css"></style></defs><path d="M1002.008381 943.055238l-267.702857-268.45054a410.607746 410.607746 0 0 0 94.711873-263.021714C829.017397 184.271238 645.28254 0 418.57219 0 191.894349 0 8.126984 184.271238 8.126984 411.582984s183.767365 411.599238 410.445206 411.599238a407.925841 407.925841 0 0 0 249.986032-85.138285L937.528889 1007.746032a45.511111 45.511111 0 0 0 64.495746 0 45.83619 45.83619 0 0 0 0-64.67454z m-441.457778-194.39746a361.943365 361.943365 0 0 1-141.978413 28.720762 361.813333 361.813333 0 0 1-203.922285-62.447746 367.85981 367.85981 0 0 1-98.580318-98.856635 364.413968 364.413968 0 0 1-62.268952-204.474921c0-24.868571 2.486857-49.672127 7.411809-73.793016a364.218921 364.218921 0 0 1 54.857143-130.698159 368.428698 368.428698 0 0 1 98.580318-98.872888 361.943365 361.943365 0 0 1 203.922285-62.447746c24.787302 0 49.525841 2.503111 73.565461 7.444317a361.732063 361.732063 0 0 1 130.356825 55.003429 367.85981 367.85981 0 0 1 98.580318 98.872888 364.413968 364.413968 0 0 1 62.268952 204.474921 364.283937 364.283937 0 0 1-62.268952 204.474921 368.428698 368.428698 0 0 1-98.580318 98.872889c-19.504762 13.214476-40.342349 24.543492-61.943873 33.726984z" p-id="11595" fill="#ffffff"></path></svg>