<?xml version="1.0" standalone="no"?><!DOCTYPE svg PUBLIC "-//W3C//DTD SVG 1.1//EN" "http://www.w3.org/Graphics/SVG/1.1/DTD/svg11.dtd"><svg t="1520604774424" class="icon" style="" viewBox="0 0 1024 1024" version="1.1" xmlns="http://www.w3.org/2000/svg" p-id="2127" xmlns:xlink="http://www.w3.org/1999/xlink" width="64" height="64"><defs><style type="text/css"></style></defs><path d="M512 0C229.6832 0 0 229.6832 0 512s229.6832 512 512 512 512-229.6832 512-512S794.3168 0 512 0z m0 989.866667C248.507733 989.866667 34.133333 775.492267 34.133333 512S248.507733 34.133333 512 34.133333s477.866667 214.3744 477.866667 477.866667-214.3744 477.866667-477.866667 477.866667z" fill="#ffffff" p-id="2128"></path><path d="M665.6 341.333333c56.4736 0 102.4-45.9264 102.4-102.4s-45.9264-102.4-102.4-102.4c-53.435733 0-97.365333 41.147733-101.9392 93.422934L323.601067 405.981867A101.666133 101.666133 0 0 0 273.066667 392.533333c-56.4736 0-102.4 45.9264-102.4 102.4s45.9264 102.4 102.4 102.4a101.666133 101.666133 0 0 0 50.5344-13.448533l240.042666 176.0256C568.234667 812.1856 612.164267 853.333333 665.6 853.333333c56.4736 0 102.4-45.9264 102.4-102.4s-45.9264-102.4-102.4-102.4a102.570667 102.570667 0 0 0-97.809067 72.072534l-217.019733-159.146667a101.973333 101.973333 0 0 0-0.017067-133.051733l217.019734-159.146667A102.621867 102.621867 0 0 0 665.6 341.333333z m0-170.666666c37.649067 0 68.266667 30.6176 68.266667 68.266666s-30.6176 68.266667-68.266667 68.266667-68.266667-30.6176-68.266667-68.266667 30.6176-68.266667 68.266667-68.266666zM204.8 494.933333c0-37.649067 30.6176-68.266667 68.266667-68.266666s68.266667 30.6176 68.266666 68.266666-30.6176 68.266667-68.266666 68.266667-68.266667-30.6176-68.266667-68.266667z m460.8 187.733334c37.649067 0 68.266667 30.6176 68.266667 68.266666s-30.6176 68.266667-68.266667 68.266667-68.266667-30.6176-68.266667-68.266667 30.6176-68.266667 68.266667-68.266666z" fill="#ffffff" p-id="2129"></path></svg>