<?xml version="1.0" standalone="no"?><!DOCTYPE svg PUBLIC "-//W3C//DTD SVG 1.1//EN" "http://www.w3.org/Graphics/SVG/1.1/DTD/svg11.dtd"><svg t="1520693330268" class="icon" style="" viewBox="0 0 1024 1024" version="1.1" xmlns="http://www.w3.org/2000/svg" p-id="5589" xmlns:xlink="http://www.w3.org/1999/xlink" width="64" height="64"><defs><style type="text/css"></style></defs><path d="M958.708971 326.351789l0 537.595958c0 29.90203-24.24417 54.157457-54.146201 54.157457L119.43723 918.105205c-29.90203 0-54.146201-24.255427-54.146201-54.157457L65.291029 326.351789c0-29.90203 24.24417-58.006112 54.146201-58.006112l300.952306 0-73.492828-72.063269c-21.070898-21.217231-20.958334-53.578266 0.258896-74.649164 21.210068-21.077038 55.494918-20.973684 76.57298 0.243547l165.229159 166.310793c20.972661 21.116947 20.972661 55.134715 0 76.251661L423.727561 530.661012c-10.582009 10.654664-24.495904 15.748682-38.415938 15.748682-13.794168 0-27.595498-5.724375-38.157042-16.213263-21.217231-21.070898-21.329794-56.319703-0.258896-77.536934l73.599252-76.020394L173.58343 376.639103l0 433.172677 676.832116 0L850.415546 376.639103 736.709855 376.639103c-29.90203 0-54.146201-24.245194-54.146201-54.146201s24.24417-54.146201 54.146201-54.146201l167.852916 0C934.464801 268.345678 958.708971 296.449759 958.708971 326.351789z" p-id="5590" fill="#ffffff"></path></svg>